<svg xmlns="http://www.w3.org/2000/svg" id="Layer_2" viewBox="0 0 2275.7 2279.41"><g id="Layer_1-2"><path d="m0,0v2279.41h2275.7V0H0Zm1785.66,1128.58h0s178.18,393.52,178.18,393.52h-122.5l-55.68-129.94-51.98,129.94h-122.5l174.48-393.52h0Zm-1006.06,742.47c-44.55,14.86-115.08,33.41-230.17,33.41-230.17,0-386.08-148.49-386.08-382.35s167.05-374.96,389.81-374.96c103.95,0,152.2,14.85,219.03,37.11l-11.14,126.22c-59.4-40.83-115.09-55.68-204.18-55.68-159.63,0-263.58,115.08-263.58,271,0,167.06,115.09,271,259.88,271,40.83,0,77.96-3.7,103.95-11.12v-189.33h-137.36v-107.66h259.86v382.35Zm326.7,33.41c-51.97-3.7-100.23-14.85-155.91-33.41l11.13-115.08c48.26,18.57,107.66,40.83,155.92,40.83,66.81-3.7,133.64-33.41,133.64-107.66,0-59.38-48.26-89.09-92.79-111.36-100.24-51.98-215.34-85.39-215.34-226.47,0-133.65,107.66-204.17,237.59-204.17,48.26,0,107.66,7.42,163.34,29.69l-18.57,111.38c-59.38-25.99-89.09-33.41-141.07-33.41-55.67,0-115.08,22.27-115.08,85.37,0,51.98,51.97,77.97,92.81,100.24,107.66,51.97,215.32,96.53,215.32,241.3,0,159.64-126.22,226.47-271,222.74Zm464.06-14.85h-122.51l163.34-363.81h0l85.39,81.67-63.12,148.5,152.21-81.67,89.09,66.82-304.4,148.49Zm430.64,0l-122.51-282.14,85.37-81.67h0s163.37,363.81,163.37,363.81h-126.22Z" style="fill-rule:evenodd;"></path></g></svg>