<svg xmlns="http://www.w3.org/2000/svg" id="Layer_2" viewBox="0 0 236.5 148.6"><g id="Layer_1-2"><path d="m165,41.2v66.3h-11.7v-29.9h-30.2v29.9h-11.6V41.2h11.6v26.4h30.2v-26.4h11.7Zm-65.1,66.4h-11.6V41.2h11.6v66.4Zm-23,0h-12.3l-30.2-48.8h-.3v48.8h-11V41.2h12.2l30.3,48.9h.2v-48.9h11.1v66.4Zm129-33.4L164.9.1H13.7c-7.5,0-13.7,6.1-13.7,13.7v121.1c0,7.5,6.1,13.7,13.7,13.7h151l41.2-74.4Z"></path><path d="m175,148.4l41.1-74.3L175.1,0h10.3c5.6,0,12.4,4,15.1,8.9l36,65.2-36.2,65.3c-2.7,4.9-9.5,8.9-15.2,8.9h-10.1v.1Z"></path></g></svg>